<svg id="SvgjsSvg1035" width="288" height="288" xmlns="http://www.w3.org/2000/svg" version="1.1" xmlns:xlink="http://www.w3.org/1999/xlink" xmlns:svgjs="http://svgjs.com/svgjs"><defs id="SvgjsDefs1036"></defs><g id="SvgjsG1037"><svg xmlns="http://www.w3.org/2000/svg" viewBox="0 0 32 32" width="288" height="288"><g data-name="download"><path d="M25,19a1,1,0,0,0-1,1v5H8V20a1,1,0,0,0-2,0v5.14A1.93,1.93,0,0,0,8,27H24a1.93,1.93,0,0,0,2-1.86V20A1,1,0,0,0,25,19Z" fill="#959595" class="color000 svgShape"></path><path d="M15.27,20.68l0,0a1.2,1.2,0,0,0,.26.18l0,0h0A1,1,0,0,0,16,21a1,1,0,0,0,.38-.08l.12-.07a1.13,1.13,0,0,0,.18-.12l0,0,0,0,5-5.38a1,1,0,1,0-1.46-1.37L17,17.45V6a1,1,0,0,0-2,0V17.45l-3.27-3.52a1,1,0,1,0-1.46,1.37Z" fill="#959595" class="color000 svgShape"></path></g></svg></g></svg>